<svg width="1499" height="500" viewBox="0 0 1499 500" fill="none" xmlns="http://www.w3.org/2000/svg">
<path d="M708.5 262.25L710 211.75H707.75L674 301.5L640.25 211.75H638L639.5 262.25V343H611V168.5H650L674.25 232.75H676L700.5 168.5H737V343H708.5V262.25ZM769.652 343V168.5H879.902V195.5H802.402V241H877.152V268H802.402V316H879.902V343H769.652ZM917.055 168.5H971.305C993.971 168.5 1010.8 176 1021.8 191C1032.97 206 1038.55 227.583 1038.55 255.75C1038.55 284.083 1032.97 305.75 1021.8 320.75C1010.8 335.583 993.971 343 971.305 343H917.055V168.5ZM969.055 316.75C981.055 316.75 989.888 312.833 995.555 305C1001.39 297.167 1004.3 285.75 1004.3 270.75V240.5C1004.3 225.667 1001.39 214.333 995.555 206.5C989.888 198.667 981.055 194.75 969.055 194.75H949.305V316.75H969.055ZM1068.21 343V318.5H1107.46V193H1068.21V168.5H1179.21V193H1139.96V318.5H1179.21V343H1068.21ZM1289.86 195.5V343H1257.36V195.5H1204.86V168.5H1342.36V195.5H1289.86ZM1407.26 343V279.25L1350.51 168.5H1387.01L1407.26 210.5L1423.01 246.25H1424.76L1440.76 210.5L1461.26 168.5H1496.51L1439.76 279.25V343H1407.26Z" fill="#E85C00"/>
<mask id="mask0_7747_22" style="mask-type:alpha" maskUnits="userSpaceOnUse" x="0" y="0" width="500" height="500">
<circle cx="250" cy="250" r="250" fill="#D9D9D9"/>
</mask>
<g mask="url(#mask0_7747_22)">
<path d="M261 299.074C152.2 190.274 -1 253.741 -64 299.074L-34.5 518.574L434 558.574L655.5 345.574C569.333 375.408 369.8 407.874 261 299.074Z" fill="#F37C2E"/>
<path d="M250 347.074C141.2 238.274 -12 301.741 -75 347.074L-45.5 566.574L423 606.574L644.5 393.574C558.333 423.408 358.8 455.874 250 347.074Z" fill="#E85C00"/>
<path d="M309.5 248.5C418.3 357.3 571.5 293.833 634.5 248.5L605 29L136.5 -11L-85 202C1.16669 172.167 200.7 139.7 309.5 248.5Z" fill="#F37C2E"/>
<path d="M330.5 202.5C439.3 311.3 592.5 247.833 655.5 202.5L626 -17L157.5 -57L-64 156C22.1667 126.167 221.7 93.7001 330.5 202.5Z" fill="#E85C00"/>
</g>
</svg>
