<svg width="500" height="500" viewBox="0 0 500 500" fill="none" xmlns="http://www.w3.org/2000/svg">
<mask id="mask0_7748_24" style="mask-type:alpha" maskUnits="userSpaceOnUse" x="0" y="0" width="500" height="500">
<circle cx="250" cy="250" r="250" fill="#D9D9D9"/>
</mask>
<g mask="url(#mask0_7748_24)">
<path d="M261 299.074C152.2 190.274 -1 253.741 -64 299.074L-34.5 518.574L434 558.574L655.5 345.574C569.333 375.408 369.8 407.874 261 299.074Z" fill="#F37C2E"/>
<path d="M250 347.074C141.2 238.274 -12 301.741 -75 347.074L-45.5 566.574L423 606.574L644.5 393.574C558.333 423.408 358.8 455.874 250 347.074Z" fill="#E85C00"/>
<path d="M309.5 248.5C418.3 357.3 571.5 293.833 634.5 248.5L605 29L136.5 -11L-85 202C1.16669 172.167 200.7 139.7 309.5 248.5Z" fill="#F37C2E"/>
<path d="M330.5 202.5C439.3 311.3 592.5 247.833 655.5 202.5L626 -17L157.5 -57L-64 156C22.1667 126.167 221.7 93.7001 330.5 202.5Z" fill="#E85C00"/>
</g>
</svg>
