<svg width="113" height="113" viewBox="0 0 113 113" fill="none" xmlns="http://www.w3.org/2000/svg">
<path d="M56.5 63.5625C74.0459 63.5625 88.2812 49.3271 88.2812 31.7812C88.2812 14.2354 74.0459 0 56.5 0C38.9541 0 24.7187 14.2354 24.7187 31.7812C24.7187 49.3271 38.9541 63.5625 56.5 63.5625ZM84.75 70.625H72.5893C67.6896 72.8762 62.2383 74.1562 56.5 74.1562C50.7617 74.1562 45.3324 72.8762 40.4107 70.625H28.25C12.6463 70.625 0 83.2713 0 98.875V102.406C0 108.255 4.74512 113 10.5937 113H102.406C108.255 113 113 108.255 113 102.406V98.875C113 83.2713 100.354 70.625 84.75 70.625Z" fill="white"/>
</svg>
